<svg id="Capa_1" enable-background="new 0 0 512 512" height="512" viewBox="0 0 512 512" width="512" xmlns="http://www.w3.org/2000/svg"><g><path d="m512 256c0 70.51-28.51 134.36-74.63 180.66-27.35 27.46-60.9 48.75-98.38 61.58-26.03 8.92-53.94 13.76-82.99 13.76s-56.96-4.84-82.99-13.76c-45.777-15.677-28.529-64.099-58.456-100.853-25.204-30.955-100.49-47.78-109.034-88.267-3.62-17.14-5.52-34.91-5.52-53.12 0-141.38 114.62-256 256-256s256 114.62 256 256z" fill="#78c378"/><g><path d="m438.589 233.992c0-41.489-33.636-75.125-75.125-75.125h-92.332l1.607 29.991h-225.072v87.694c0 41.489 33.636 75.125 75.125 75.125h185.413l-1.607-29.991h131.992v-87.694z" fill="#362a40"/><path d="m122.79 12.3c-.82 0-1.64.01-2.46.05-40.35 1.3-72.66 34.42-72.66 75.08v189.13c0-40.67 32.31-73.79 72.66-75.08.82-.04 1.64-.05 2.46-.05h389.21v-189.13zm236.5 35.18c0 5.62-4.56 10.18-10.18 10.18s-10.18-4.56-10.18-10.18v-6.79c0-5.62 4.56-10.18 10.18-10.18 2.81 0 5.35 1.14 7.2 2.98 1.84 1.85 2.98 4.39 2.98 7.2zm45.31 0c0 5.62-4.55 10.18-10.18 10.18-5.62 0-10.18-4.56-10.18-10.18v-6.79c0-5.62 4.56-10.18 10.18-10.18 2.82 0 5.36 1.14 7.2 2.98 1.84 1.85 2.98 4.39 2.98 7.2zm45.32 0c0 5.62-4.56 10.18-10.18 10.18s-10.18-4.56-10.18-10.18v-6.79c0-5.62 4.56-10.18 10.18-10.18 2.81 0 5.36 1.14 7.2 2.98 1.84 1.85 2.98 4.39 2.98 7.2zm45.31 125.56c0 5.62-4.55 10.18-10.18 10.18-5.62 0-10.18-4.56-10.18-10.18v-6.79c0-5.62 4.56-10.18 10.18-10.18 2.81 0 5.36 1.14 7.2 2.98 1.84 1.85 2.98 4.39 2.98 7.2zm0-125.56c0 5.62-4.55 10.18-10.18 10.18-5.62 0-10.18-4.56-10.18-10.18v-6.79c0-5.62 4.56-10.18 10.18-10.18 2.81 0 5.36 1.14 7.2 2.98 1.84 1.85 2.98 4.39 2.98 7.2z" fill="#50405a"/><path d="m438.59 233.99v189.13c0 4.62-.42 9.15-1.22 13.54-6.37 35.03-37.04 61.58-73.91 61.58h-190.45c-84.33-28.88-148.8-100.56-167.49-189.12h357.94c41.49 0 75.13-33.64 75.13-75.13z" fill="#50405a"/><g fill="#78c378"><path d="m363.726 452.886c5.622 0 10.18 4.558 10.18 10.18v6.787c0 5.622-4.558 10.18-10.18 10.18-5.622 0-10.18-4.558-10.18-10.18v-6.787c-.001-5.622 4.557-10.18 10.18-10.18z"/><path d="m318.411 452.886c5.622 0 10.18 4.558 10.18 10.18v6.787c0 5.622-4.558 10.18-10.18 10.18-5.622 0-10.18-4.558-10.18-10.18v-6.787c-.001-5.622 4.557-10.18 10.18-10.18z"/><path d="m273.096 452.886c5.622 0 10.18 4.558 10.18 10.18v6.787c0 5.622-4.558 10.18-10.18 10.18-5.622 0-10.18-4.558-10.18-10.18v-6.787c-.001-5.622 4.557-10.18 10.18-10.18z"/><path d="m227.781 452.886c5.622 0 10.18 4.558 10.18 10.18v6.787c0 5.622-4.558 10.18-10.18 10.18-5.622 0-10.18-4.558-10.18-10.18v-6.787c0-5.622 4.557-10.18 10.18-10.18z"/><path d="m182.466 452.886c5.622 0 10.18 4.558 10.18 10.18v6.787c0 5.622-4.558 10.18-10.18 10.18-5.622 0-10.18-4.558-10.18-10.18v-6.787c0-5.622 4.557-10.18 10.18-10.18z"/><path d="m137.151 452.886c5.622 0 10.18 4.558 10.18 10.18v6.787c0 5.622-4.558 10.18-10.18 10.18-5.622 0-10.18-4.558-10.18-10.18v-6.787c0-5.622 4.558-10.18 10.18-10.18z"/><path d="m363.726 327.328c5.622 0 10.18 4.558 10.18 10.18v6.787c0 5.622-4.558 10.18-10.18 10.18-5.622 0-10.18-4.558-10.18-10.18v-6.787c-.001-5.622 4.557-10.18 10.18-10.18z"/><path d="m403.963 434.918c5.622 0 10.18 4.558 10.18 10.18v6.787c0 5.622-4.558 10.18-10.18 10.18-5.622 0-10.18-4.558-10.18-10.18v-6.787c-.001-5.622 4.557-10.18 10.18-10.18z"/><path d="m403.963 309.36c5.622 0 10.18 4.558 10.18 10.18v6.787c0 5.622-4.558 10.18-10.18 10.18-5.622 0-10.18-4.558-10.18-10.18v-6.787c-.001-5.622 4.557-10.18 10.18-10.18z"/><path d="m318.411 327.328c5.622 0 10.18 4.558 10.18 10.18v6.787c0 5.622-4.558 10.18-10.18 10.18-5.622 0-10.18-4.558-10.18-10.18v-6.787c-.001-5.622 4.557-10.18 10.18-10.18z"/><path d="m273.096 327.328c5.622 0 10.18 4.558 10.18 10.18v6.787c0 5.622-4.558 10.18-10.18 10.18-5.622 0-10.18-4.558-10.18-10.18v-6.787c-.001-5.622 4.557-10.18 10.18-10.18z"/><path d="m227.781 327.328c5.622 0 10.18 4.558 10.18 10.18v6.787c0 5.622-4.558 10.18-10.18 10.18-5.622 0-10.18-4.558-10.18-10.18v-6.787c0-5.622 4.557-10.18 10.18-10.18z"/><path d="m182.466 327.328c5.622 0 10.18 4.558 10.18 10.18v6.787c0 5.622-4.558 10.18-10.18 10.18-5.622 0-10.18-4.558-10.18-10.18v-6.787c0-5.622 4.557-10.18 10.18-10.18z"/><path d="m137.151 327.328c5.622 0 10.18 4.558 10.18 10.18v6.787c0 5.622-4.558 10.18-10.18 10.18-5.622 0-10.18-4.558-10.18-10.18v-6.787c0-5.622 4.558-10.18 10.18-10.18z"/><path d="m91.836 327.328c5.622 0 10.18 4.558 10.18 10.18v6.787c0 5.622-4.558 10.18-10.18 10.18-5.622 0-10.18-4.558-10.18-10.18v-6.787c0-5.622 4.558-10.18 10.18-10.18z"/><path d="m46.521 327.328c5.622 0 10.18 4.558 10.18 10.18v6.787c0 5.622-4.558 10.18-10.18 10.18-5.622 0-10.18-4.558-10.18-10.18v-6.787c0-5.622 4.558-10.18 10.18-10.18z"/></g><path d="m120.334 12.353v189.126c-40.352 1.293-72.667 34.414-72.667 75.077v-189.126c0-40.663 32.315-73.785 72.667-75.077z" fill="#362a40"/><g fill="#78c378"><path d="m122.534 57.66c-5.622 0-10.18-4.558-10.18-10.18v-6.787c0-5.622 4.558-10.18 10.18-10.18 5.622 0 10.18 4.558 10.18 10.18v6.787c0 5.622-4.558 10.18-10.18 10.18z"/><path d="m167.848 57.66c-5.622 0-10.18-4.558-10.18-10.18v-6.787c0-5.622 4.558-10.18 10.18-10.18 5.622 0 10.18 4.558 10.18 10.18v6.787c.001 5.622-4.557 10.18-10.18 10.18z"/><path d="m213.163 57.66c-5.622 0-10.18-4.558-10.18-10.18v-6.787c0-5.622 4.558-10.18 10.18-10.18 5.622 0 10.18 4.558 10.18 10.18v6.787c.001 5.622-4.557 10.18-10.18 10.18z"/><path d="m258.478 57.66c-5.622 0-10.18-4.558-10.18-10.18v-6.787c0-5.622 4.558-10.18 10.18-10.18 5.622 0 10.18 4.558 10.18 10.18v6.787c.001 5.622-4.557 10.18-10.18 10.18z"/><path d="m303.793 57.66c-5.622 0-10.18-4.558-10.18-10.18v-6.787c0-5.622 4.558-10.18 10.18-10.18 5.622 0 10.18 4.558 10.18 10.18v6.787c.001 5.622-4.557 10.18-10.18 10.18z"/><path d="m122.534 183.218c-5.622 0-10.18-4.558-10.18-10.18v-6.787c0-5.622 4.558-10.18 10.18-10.18 5.622 0 10.18 4.558 10.18 10.18v6.787c0 5.622-4.558 10.18-10.18 10.18z"/><path d="m82.297 75.628c-5.622 0-10.18-4.558-10.18-10.18v-6.788c0-5.622 4.558-10.18 10.18-10.18 5.622 0 10.18 4.558 10.18 10.18v6.787c0 5.623-4.558 10.181-10.18 10.181z"/><path d="m82.297 201.186c-5.622 0-10.18-4.558-10.18-10.18v-6.787c0-5.622 4.558-10.18 10.18-10.18 5.622 0 10.18 4.558 10.18 10.18v6.787c0 5.622-4.558 10.18-10.18 10.18z"/><path d="m167.848 183.218c-5.622 0-10.18-4.558-10.18-10.18v-6.787c0-5.622 4.558-10.18 10.18-10.18 5.622 0 10.18 4.558 10.18 10.18v6.787c.001 5.622-4.557 10.18-10.18 10.18z"/><path d="m213.163 183.218c-5.622 0-10.18-4.558-10.18-10.18v-6.787c0-5.622 4.558-10.18 10.18-10.18 5.622 0 10.18 4.558 10.18 10.18v6.787c.001 5.622-4.557 10.18-10.18 10.18z"/><path d="m258.478 183.218c-5.622 0-10.18-4.558-10.18-10.18v-6.787c0-5.622 4.558-10.18 10.18-10.18 5.622 0 10.18 4.558 10.18 10.18v6.787c.001 5.622-4.557 10.18-10.18 10.18z"/><path d="m303.793 183.218c-5.622 0-10.18-4.558-10.18-10.18v-6.787c0-5.622 4.558-10.18 10.18-10.18 5.622 0 10.18 4.558 10.18 10.18v6.787c.001 5.622-4.557 10.18-10.18 10.18z"/><path d="m349.108 183.218c-5.622 0-10.18-4.558-10.18-10.18v-6.787c0-5.622 4.558-10.18 10.18-10.18 5.622 0 10.18 4.558 10.18 10.18v6.787c.001 5.622-4.557 10.18-10.18 10.18z"/><path d="m394.423 183.218c-5.622 0-10.18-4.558-10.18-10.18v-6.787c0-5.622 4.558-10.18 10.18-10.18 5.622 0 10.18 4.558 10.18 10.18v6.787c.001 5.622-4.557 10.18-10.18 10.18z"/><path d="m439.738 183.218c-5.622 0-10.18-4.558-10.18-10.18v-6.787c0-5.622 4.558-10.18 10.18-10.18 5.622 0 10.18 4.558 10.18 10.18v6.787c0 5.622-4.557 10.18-10.18 10.18z"/></g></g><path d="m339.768 227.269-89.67-51.771c-20.327-11.736-45.736 2.934-45.736 26.406v103.542c0 23.472 25.409 38.141 45.736 26.406l89.67-51.771c20.327-11.737 20.327-41.077 0-52.812z" fill="#dc4355"/><path d="m248.323 332.803c-20 9.92-43.96-4.57-43.96-27.36v-103.54c0-22.79 23.96-37.28 43.96-27.36-9.82 4.84-17.03 14.85-17.03 27.36v103.54c0 12.51 7.21 22.52 17.03 27.36z" fill="#c60054"/></g></svg>