<?xml version="1.0" encoding="utf-8"?>
<!-- Generator: Adobe Illustrator 24.3.0, SVG Export Plug-In . SVG Version: 6.00 Build 0)  -->
<svg version="1.1" id="katman_1" xmlns="http://www.w3.org/2000/svg" xmlns:xlink="http://www.w3.org/1999/xlink" x="0px" y="0px"
	 viewBox="0 0 3000 1280" style="enable-background:new 0 0 3000 1280;" xml:space="preserve">
<style type="text/css">
	.st0{fill:#A9BEBE;}
	.st1{fill:#092525;}
	.st2{fill:#134040;}
	.st3{fill:#FFFFFF;}
	.st4{fill:#DBDBDB;}
	.st5{fill:url(#SVGID_1_);}
	.st6{fill:url(#SVGID_2_);}
	.st7{fill:url(#SVGID_3_);}
	.st8{fill:url(#SVGID_4_);}
	.st9{fill:url(#SVGID_5_);}
	.st10{fill:url(#SVGID_6_);}
	.st11{fill:url(#SVGID_7_);}
</style>
<g>
	<rect x="840.24" y="169.25" class="st0" width="250.44" height="76.3"/>
	<path class="st0" d="M1113.8,634.23c0,142.16-57.48,270.9-150.47,364.25c-55.14,55.36-122.79,98.29-198.35,124.16
		c-52.48,17.98-108.75,27.74-167.32,27.74c-58.57,0-114.84-9.76-167.32-27.74c-92.3-31.61-57.52-129.24-117.86-203.34
		c-50.82-62.41-202.61-96.33-219.83-177.96c-7.3-34.56-11.13-70.39-11.13-107.1c0-285.05,231.1-516.15,516.15-516.15
		S1113.8,349.18,1113.8,634.23z"/>
	<path class="st1" d="M965.79,589.86c0-83.65-67.82-151.47-151.47-151.47H628.17l3.24,60.47H177.62v176.81
		c0,83.65,67.82,151.47,151.47,151.47h373.83l-3.24-60.47H965.8L965.79,589.86L965.79,589.86z"/>
	<path class="st2" d="M329.08,142.88c-1.65,0-3.31,0.02-4.96,0.1c-81.35,2.62-146.5,69.4-146.5,151.38v381.32
		c0-82,65.14-148.77,146.5-151.38c1.65-0.08,3.31-0.1,4.96-0.1h784.72V142.88L329.08,142.88z M805.91,213.81
		c0,11.33-9.19,20.52-20.52,20.52c-11.33,0-20.52-9.19-20.52-20.52v-13.69c0-11.33,9.19-20.52,20.52-20.52
		c5.67,0,10.79,2.3,14.52,6.01c3.71,3.73,6.01,8.85,6.01,14.52L805.91,213.81z M897.27,213.81c0,11.33-9.17,20.52-20.52,20.52
		c-11.33,0-20.52-9.19-20.52-20.52v-13.69c0-11.33,9.19-20.52,20.52-20.52c5.69,0,10.81,2.3,14.52,6.01
		c3.71,3.73,6.01,8.85,6.01,14.52L897.27,213.81z M988.64,213.81c0,11.33-9.19,20.52-20.52,20.52s-20.52-9.19-20.52-20.52v-13.69
		c0-11.33,9.19-20.52,20.52-20.52c5.67,0,10.81,2.3,14.52,6.01c3.71,3.73,6.01,8.85,6.01,14.52L988.64,213.81z M1079.99,466.97
		c0,11.33-9.17,20.52-20.52,20.52c-11.33,0-20.52-9.19-20.52-20.52v-13.69c0-11.33,9.19-20.52,20.52-20.52
		c5.67,0,10.81,2.3,14.52,6.01c3.71,3.73,6.01,8.85,6.01,14.52V466.97z M1079.99,213.81c0,11.33-9.17,20.52-20.52,20.52
		c-11.33,0-20.52-9.19-20.52-20.52v-13.69c0-11.33,9.19-20.52,20.52-20.52c5.67,0,10.81,2.3,14.52,6.01
		c3.71,3.73,6.01,8.85,6.01,14.52V213.81z"/>
	<path class="st2" d="M965.8,589.85v381.32c0,9.31-0.85,18.45-2.46,27.3c-12.84,70.63-74.68,124.16-149.02,124.16H430.34
		c-170.03-58.23-300.01-202.75-337.69-381.3h721.68C897.97,741.33,965.8,673.51,965.8,589.85L965.8,589.85z"/>
	<g>
		<path class="st0" d="M814.86,1031.19c11.34,0,20.52,9.19,20.52,20.52v13.68c0,11.34-9.19,20.52-20.52,20.52
			c-11.34,0-20.52-9.19-20.52-20.52v-13.68C794.33,1040.38,803.52,1031.19,814.86,1031.19z"/>
		<path class="st0" d="M723.49,1031.19c11.34,0,20.52,9.19,20.52,20.52v13.68c0,11.34-9.19,20.52-20.52,20.52
			c-11.34,0-20.52-9.19-20.52-20.52v-13.68C702.96,1040.38,712.15,1031.19,723.49,1031.19z"/>
		<path class="st0" d="M632.13,1031.19c11.34,0,20.52,9.19,20.52,20.52v13.68c0,11.34-9.19,20.52-20.52,20.52
			s-20.52-9.19-20.52-20.52v-13.68C611.6,1040.38,620.79,1031.19,632.13,1031.19z"/>
		<path class="st0" d="M540.76,1031.19c11.34,0,20.52,9.19,20.52,20.52v13.68c0,11.34-9.19,20.52-20.52,20.52
			s-20.52-9.19-20.52-20.52v-13.68C520.24,1040.38,529.43,1031.19,540.76,1031.19z"/>
		<path class="st0" d="M449.4,1031.19c11.34,0,20.52,9.19,20.52,20.52v13.68c0,11.34-9.19,20.52-20.52,20.52
			s-20.52-9.19-20.52-20.52v-13.68C428.88,1040.38,438.06,1031.19,449.4,1031.19z"/>
		<path class="st0" d="M358.04,1031.19c11.34,0,20.52,9.19,20.52,20.52v13.68c0,11.34-9.19,20.52-20.52,20.52
			c-11.33,0-20.52-9.19-20.52-20.52v-13.68C337.51,1040.38,346.7,1031.19,358.04,1031.19z"/>
		<path class="st0" d="M814.86,778.04c11.34,0,20.52,9.19,20.52,20.52v13.68c0,11.34-9.19,20.52-20.52,20.52
			c-11.34,0-20.52-9.19-20.52-20.52v-13.68C794.33,787.23,803.52,778.04,814.86,778.04z"/>
		<path class="st0" d="M895.98,994.96c11.34,0,20.52,9.19,20.52,20.52v13.68c0,11.34-9.19,20.52-20.52,20.52
			s-20.52-9.19-20.52-20.52v-13.68C875.45,1004.15,884.64,994.96,895.98,994.96z"/>
		<path class="st0" d="M895.98,741.81c11.34,0,20.52,9.19,20.52,20.52v13.68c0,11.34-9.19,20.52-20.52,20.52
			s-20.52-9.19-20.52-20.52v-13.68C875.45,751,884.64,741.81,895.98,741.81z"/>
		<path class="st0" d="M723.49,778.04c11.34,0,20.52,9.19,20.52,20.52v13.68c0,11.34-9.19,20.52-20.52,20.52
			c-11.34,0-20.52-9.19-20.52-20.52v-13.68C702.96,787.23,712.15,778.04,723.49,778.04z"/>
		<path class="st0" d="M632.13,778.04c11.34,0,20.52,9.19,20.52,20.52v13.68c0,11.34-9.19,20.52-20.52,20.52
			s-20.52-9.19-20.52-20.52v-13.68C611.6,787.23,620.79,778.04,632.13,778.04z"/>
		<path class="st0" d="M540.76,778.04c11.34,0,20.52,9.19,20.52,20.52v13.68c0,11.34-9.19,20.52-20.52,20.52
			s-20.52-9.19-20.52-20.52v-13.68C520.24,787.23,529.43,778.04,540.76,778.04z"/>
		<path class="st0" d="M449.4,778.04c11.34,0,20.52,9.19,20.52,20.52v13.68c0,11.34-9.19,20.52-20.52,20.52s-20.52-9.19-20.52-20.52
			v-13.68C428.88,787.23,438.06,778.04,449.4,778.04z"/>
		<path class="st0" d="M358.04,778.04c11.34,0,20.52,9.19,20.52,20.52v13.68c0,11.34-9.19,20.52-20.52,20.52
			c-11.33,0-20.52-9.19-20.52-20.52v-13.68C337.51,787.23,346.7,778.04,358.04,778.04z"/>
		<path class="st0" d="M266.67,778.04c11.34,0,20.52,9.19,20.52,20.52v13.68c0,11.34-9.19,20.52-20.52,20.52
			c-11.34,0-20.52-9.19-20.52-20.52v-13.68C246.15,787.23,255.34,778.04,266.67,778.04z"/>
		<path class="st0" d="M175.31,778.04c11.34,0,20.52,9.19,20.52,20.52v13.68c0,11.34-9.19,20.52-20.52,20.52
			c-11.34,0-20.52-9.19-20.52-20.52v-13.68C154.78,787.23,163.97,778.04,175.31,778.04z"/>
	</g>
	<path class="st1" d="M324.13,142.99v381.31c-81.36,2.61-146.51,69.39-146.51,151.37V294.36
		C177.62,212.38,242.77,145.6,324.13,142.99L324.13,142.99z"/>
	<g>
		<path class="st0" d="M328.57,234.34c-11.34,0-20.52-9.19-20.52-20.52v-13.68c0-11.34,9.19-20.52,20.52-20.52
			s20.52,9.19,20.52,20.52v13.68C349.09,225.15,339.9,234.34,328.57,234.34z"/>
		<path class="st0" d="M419.93,234.34c-11.34,0-20.52-9.19-20.52-20.52v-13.68c0-11.34,9.19-20.52,20.52-20.52
			s20.52,9.19,20.52,20.52v13.68C440.45,225.15,431.26,234.34,419.93,234.34L419.93,234.34z"/>
		<path class="st0" d="M511.29,234.34c-11.34,0-20.52-9.19-20.52-20.52v-13.68c0-11.34,9.19-20.52,20.52-20.52
			s20.52,9.19,20.52,20.52v13.68C531.82,225.15,522.63,234.34,511.29,234.34z"/>
		<path class="st0" d="M602.66,234.34c-11.34,0-20.52-9.19-20.52-20.52v-13.68c0-11.34,9.19-20.52,20.52-20.52
			c11.34,0,20.52,9.19,20.52,20.52v13.68C623.18,225.15,613.99,234.34,602.66,234.34z"/>
		<path class="st0" d="M694.02,234.34c-11.34,0-20.52-9.19-20.52-20.52v-13.68c0-11.34,9.19-20.52,20.52-20.52
			s20.52,9.19,20.52,20.52v13.68C714.55,225.15,705.36,234.34,694.02,234.34z"/>
		<path class="st0" d="M328.57,487.49c-11.34,0-20.52-9.19-20.52-20.52v-13.68c0-11.34,9.19-20.52,20.52-20.52
			s20.52,9.19,20.52,20.52v13.68C349.09,478.3,339.9,487.49,328.57,487.49L328.57,487.49z"/>
		<path class="st0" d="M247.44,270.57c-11.34,0-20.52-9.19-20.52-20.52v-13.69c0-11.34,9.19-20.52,20.52-20.52
			s20.52,9.19,20.52,20.52v13.68C267.97,261.38,258.78,270.57,247.44,270.57z"/>
		<path class="st0" d="M247.44,523.71c-11.34,0-20.52-9.19-20.52-20.52v-13.68c0-11.34,9.19-20.52,20.52-20.52
			s20.52,9.19,20.52,20.52v13.68C267.97,514.53,258.78,523.71,247.44,523.71z"/>
		<path class="st0" d="M419.93,487.49c-11.34,0-20.52-9.19-20.52-20.52v-13.68c0-11.34,9.19-20.52,20.52-20.52
			s20.52,9.19,20.52,20.52v13.68C440.45,478.3,431.26,487.49,419.93,487.49L419.93,487.49z"/>
		<path class="st0" d="M511.29,487.49c-11.34,0-20.52-9.19-20.52-20.52v-13.68c0-11.34,9.19-20.52,20.52-20.52
			s20.52,9.19,20.52,20.52v13.68C531.82,478.3,522.63,487.49,511.29,487.49L511.29,487.49z"/>
		<path class="st0" d="M602.66,487.49c-11.34,0-20.52-9.19-20.52-20.52v-13.68c0-11.34,9.19-20.52,20.52-20.52
			c11.34,0,20.52,9.19,20.52,20.52v13.68C623.18,478.3,613.99,487.49,602.66,487.49L602.66,487.49z"/>
		<path class="st0" d="M694.02,487.49c-11.34,0-20.52-9.19-20.52-20.52v-13.68c0-11.34,9.19-20.52,20.52-20.52
			s20.52,9.19,20.52,20.52v13.68C714.55,478.3,705.36,487.49,694.02,487.49L694.02,487.49z"/>
		<path class="st0" d="M785.38,487.49c-11.34,0-20.52-9.19-20.52-20.52v-13.68c0-11.34,9.19-20.52,20.52-20.52
			c11.34,0,20.52,9.19,20.52,20.52v13.68C805.91,478.3,796.72,487.49,785.38,487.49L785.38,487.49z"/>
		<path class="st0" d="M876.75,487.49c-11.34,0-20.52-9.19-20.52-20.52v-13.68c0-11.34,9.19-20.52,20.52-20.52
			c11.34,0,20.52,9.19,20.52,20.52v13.68C897.27,478.3,888.08,487.49,876.75,487.49L876.75,487.49z"/>
		<path class="st0" d="M968.11,487.49c-11.34,0-20.52-9.19-20.52-20.52v-13.68c0-11.34,9.19-20.52,20.52-20.52
			s20.52,9.19,20.52,20.52v13.68C988.63,478.3,979.45,487.49,968.11,487.49L968.11,487.49z"/>
	</g>
	<path class="st3" d="M766.55,576.3L585.76,471.92c-40.98-23.66-92.21,5.92-92.21,53.24v208.76c0,47.32,51.23,76.9,92.21,53.24
		l180.79-104.38C807.53,659.12,807.53,599.96,766.55,576.3L766.55,576.3z"/>
	<path class="st4" d="M582.18,789.08c-40.32,20-88.63-9.21-88.63-55.16V525.16c0-45.95,48.31-75.16,88.63-55.16
		c-19.8,9.76-34.34,29.94-34.34,55.16v208.76C547.85,759.14,562.38,779.32,582.18,789.08L582.18,789.08z"/>
</g>
<linearGradient id="SVGID_1_" gradientUnits="userSpaceOnUse" x1="1315.8828" y1="2244.0688" x2="1325.0742" y2="231.1327">
	<stop  offset="0" style="stop-color:#000000"/>
	<stop  offset="0.2057" style="stop-color:#464646"/>
	<stop  offset="0.4186" style="stop-color:#878787"/>
	<stop  offset="0.6123" style="stop-color:#BBBBBB"/>
	<stop  offset="0.78" style="stop-color:#E0E0E0"/>
	<stop  offset="0.9148" style="stop-color:#F7F7F7"/>
	<stop  offset="1" style="stop-color:#FFFFFF"/>
</linearGradient>
<path class="st5" d="M1201.7,428.2h110.14v75.38h2.34c14.84-53.12,50.39-82.02,99.6-82.02c13.28,0,24.61,1.95,32.42,4.3v100.38
	c-9.37-3.91-25-6.64-41.4-6.64c-56.24,0-89.05,34.37-89.05,93.35V846.9H1201.7V428.2z"/>
<linearGradient id="SVGID_2_" gradientUnits="userSpaceOnUse" x1="1621.5542" y1="3189.5317" x2="1686.9159" y2="-176.5959">
	<stop  offset="0" style="stop-color:#000000"/>
	<stop  offset="0.2057" style="stop-color:#464646"/>
	<stop  offset="0.4186" style="stop-color:#878787"/>
	<stop  offset="0.6123" style="stop-color:#BBBBBB"/>
	<stop  offset="0.78" style="stop-color:#E0E0E0"/>
	<stop  offset="0.9148" style="stop-color:#F7F7F7"/>
	<stop  offset="1" style="stop-color:#FFFFFF"/>
</linearGradient>
<path class="st6" d="M1463.78,633.84c0-135.53,82.02-217.95,207.4-217.95c125.38,0,207.4,82.02,207.4,217.95
	c0,137.88-80.85,218.73-207.4,218.73S1463.78,771.32,1463.78,633.84z M1762.57,634.23c0-83.19-35.93-131.24-91.4-131.24
	c-55.46,0-91.79,48.04-91.79,131.24c0,83.98,35.54,131.24,91.79,131.24C1727.03,765.47,1762.57,718.21,1762.57,634.23z"/>
<linearGradient id="SVGID_3_" gradientUnits="userSpaceOnUse" x1="2625.905" y1="2880.7349" x2="2766.8413" y2="12.9901">
	<stop  offset="0" style="stop-color:#000000"/>
	<stop  offset="0.2057" style="stop-color:#464646"/>
	<stop  offset="0.4186" style="stop-color:#878787"/>
	<stop  offset="0.6123" style="stop-color:#BBBBBB"/>
	<stop  offset="0.78" style="stop-color:#E0E0E0"/>
	<stop  offset="0.9148" style="stop-color:#F7F7F7"/>
	<stop  offset="1" style="stop-color:#FFFFFF"/>
</linearGradient>
<path class="st7" d="M2732.78,415.89c105.07,0,173.42,53.12,174.98,134.36h-105.07c-2.34-33.59-29.29-54.29-71.48-54.29
	c-39.45,0-65.23,17.97-65.23,44.92c0,20.7,17.97,34.76,54.68,43.35l80.07,17.19c83.98,18.75,117.96,51.95,117.96,114.44
	c0,82.41-75.77,136.7-186.31,136.7c-111.71,0-180.45-53.9-186.7-135.53H2657c5.47,35.15,33.2,55.46,78.51,55.46
	c43.35,0,69.52-17.19,69.52-44.53c0-21.09-14.06-32.81-51.56-41.79l-77.33-17.19c-79.29-17.97-119.91-59.37-119.91-121.08
	C2556.23,468.23,2625.37,415.89,2732.78,415.89z"/>
<g>
	<linearGradient id="SVGID_4_" gradientUnits="userSpaceOnUse" x1="2456.9307" y1="1116.9615" x2="2228.6619" y2="487.1595">
		<stop  offset="0" style="stop-color:#000000"/>
		<stop  offset="0.2057" style="stop-color:#464646"/>
		<stop  offset="0.4186" style="stop-color:#878787"/>
		<stop  offset="0.6123" style="stop-color:#BBBBBB"/>
		<stop  offset="0.78" style="stop-color:#E0E0E0"/>
		<stop  offset="0.9148" style="stop-color:#F7F7F7"/>
		<stop  offset="1" style="stop-color:#FFFFFF"/>
	</linearGradient>
	<polygon class="st8" points="2419.3,843.58 2270.25,424.88 2160.89,424.88 2293.68,843.58 	"/>
	
		<linearGradient id="SVGID_5_" gradientUnits="userSpaceOnUse" x1="6726.8853" y1="252.4312" x2="6544.1279" y2="756.6656" gradientTransform="matrix(-1 0 0 1 9012.3447 0)">
		<stop  offset="0" style="stop-color:#000000"/>
		<stop  offset="7.966634e-03" style="stop-color:#040404"/>
		<stop  offset="0.1273" style="stop-color:#3E3E3E"/>
		<stop  offset="0.2497" style="stop-color:#727272"/>
		<stop  offset="0.3724" style="stop-color:#9D9D9D"/>
		<stop  offset="0.4955" style="stop-color:#C0C0C0"/>
		<stop  offset="0.6193" style="stop-color:#DCDCDC"/>
		<stop  offset="0.744" style="stop-color:#EFEFEF"/>
		<stop  offset="0.8701" style="stop-color:#FBFBFB"/>
		<stop  offset="1" style="stop-color:#FFFFFF"/>
	</linearGradient>
	<polygon class="st9" points="2294.64,843.58 2443.68,424.88 2553.05,424.88 2420.25,843.58 	"/>
	<linearGradient id="SVGID_6_" gradientUnits="userSpaceOnUse" x1="2174.1729" y1="1116.9615" x2="1945.9041" y2="487.1595">
		<stop  offset="0" style="stop-color:#000000"/>
		<stop  offset="0.2057" style="stop-color:#464646"/>
		<stop  offset="0.4186" style="stop-color:#878787"/>
		<stop  offset="0.6123" style="stop-color:#BBBBBB"/>
		<stop  offset="0.78" style="stop-color:#E0E0E0"/>
		<stop  offset="0.9148" style="stop-color:#F7F7F7"/>
		<stop  offset="1" style="stop-color:#FFFFFF"/>
	</linearGradient>
	<polygon class="st10" points="2136.54,843.58 1987.49,424.88 1878.13,424.88 2010.93,843.58 	"/>
	
		<linearGradient id="SVGID_7_" gradientUnits="userSpaceOnUse" x1="7009.6431" y1="252.4312" x2="6826.8857" y2="756.6656" gradientTransform="matrix(-1 0 0 1 9012.3447 0)">
		<stop  offset="0" style="stop-color:#000000"/>
		<stop  offset="7.966634e-03" style="stop-color:#040404"/>
		<stop  offset="0.1273" style="stop-color:#3E3E3E"/>
		<stop  offset="0.2497" style="stop-color:#727272"/>
		<stop  offset="0.3724" style="stop-color:#9D9D9D"/>
		<stop  offset="0.4955" style="stop-color:#C0C0C0"/>
		<stop  offset="0.6193" style="stop-color:#DCDCDC"/>
		<stop  offset="0.744" style="stop-color:#EFEFEF"/>
		<stop  offset="0.8701" style="stop-color:#FBFBFB"/>
		<stop  offset="1" style="stop-color:#FFFFFF"/>
	</linearGradient>
	<polygon class="st11" points="2011.88,843.58 2160.92,424.88 2270.29,424.88 2137.49,843.58 	"/>
</g>
</svg>
