<?xml version="1.0" encoding="utf-8"?>
<!-- Generator: Adobe Illustrator 24.3.0, SVG Export Plug-In . SVG Version: 6.00 Build 0)  -->
<svg version="1.1" id="katman_1" xmlns="http://www.w3.org/2000/svg" xmlns:xlink="http://www.w3.org/1999/xlink" x="0px" y="0px"
	 viewBox="0 0 1280 1280" style="enable-background:new 0 0 1280 1280;" xml:space="preserve">
<style type="text/css">
	.st0{fill:#A9BEBE;}
	.st1{fill:#092525;}
	.st2{fill:#134040;}
	.st3{fill:#FFFFFF;}
	.st4{fill:#DBDBDB;}
</style>
<rect x="910" y="122" class="st0" width="279" height="85"/>
<path class="st0" d="M1214.76,640c0,158.37-64.04,301.79-167.63,405.78c-61.43,61.68-136.79,109.5-220.97,138.31
	c-58.47,20.04-121.15,30.91-186.4,30.91s-127.94-10.87-186.4-30.91c-102.82-35.21-64.08-143.97-131.3-226.53
	c-56.61-69.53-225.71-107.32-244.9-198.26c-8.13-38.5-12.4-78.41-12.4-119.31c0-317.55,257.45-575,575-575
	S1214.76,322.45,1214.76,640z"/>
<path class="st1" d="M1049.87,590.57c0-93.19-75.55-168.74-168.74-168.74H673.75l3.61,67.36H171.82v196.97
	c0,93.19,75.55,168.74,168.74,168.74h416.45l-3.61-67.36h296.47L1049.87,590.57L1049.87,590.57z"/>
<path class="st2" d="M340.56,92.63c-1.84,0-3.68,0.02-5.53,0.11c-90.63,2.92-163.2,77.31-163.2,168.64v424.8
	c0-91.35,72.57-165.74,163.2-168.64c1.84-0.09,3.68-0.11,5.53-0.11h874.2V92.63L340.56,92.63z M871.76,171.64
	c0,12.62-10.24,22.87-22.87,22.87c-12.62,0-22.87-10.24-22.87-22.87v-15.25c0-12.62,10.24-22.87,22.87-22.87
	c6.31,0,12.02,2.56,16.17,6.69c4.13,4.16,6.69,9.86,6.69,16.17L871.76,171.64z M973.53,171.64c0,12.62-10.22,22.87-22.87,22.87
	c-12.62,0-22.87-10.24-22.87-22.87v-15.25c0-12.62,10.24-22.87,22.87-22.87c6.33,0,12.04,2.56,16.17,6.69
	c4.13,4.16,6.69,9.86,6.69,16.17L973.53,171.64z M1075.32,171.64c0,12.62-10.24,22.87-22.87,22.87s-22.87-10.24-22.87-22.87v-15.25
	c0-12.62,10.24-22.87,22.87-22.87c6.31,0,12.04,2.56,16.17,6.69c4.13,4.16,6.69,9.86,6.69,16.17L1075.32,171.64z M1177.09,453.66
	c0,12.62-10.22,22.87-22.87,22.87c-12.62,0-22.87-10.24-22.87-22.87v-15.25c0-12.62,10.24-22.87,22.87-22.87
	c6.31,0,12.04,2.56,16.17,6.69c4.13,4.16,6.69,9.86,6.69,16.17L1177.09,453.66z M1177.09,171.64c0,12.62-10.22,22.87-22.87,22.87
	c-12.62,0-22.87-10.24-22.87-22.87v-15.25c0-12.62,10.24-22.87,22.87-22.87c6.31,0,12.04,2.56,16.17,6.69
	c4.13,4.16,6.69,9.86,6.69,16.17L1177.09,171.64z"/>
<path class="st2" d="M1049.87,590.56v424.8c0,10.38-0.94,20.55-2.74,30.41c-14.31,78.68-83.2,138.31-166.01,138.31H453.35
	c-189.41-64.87-334.22-225.87-376.2-424.78h803.97C974.31,759.31,1049.87,683.75,1049.87,590.56L1049.87,590.56z"/>
<g>
	<path class="st0" d="M881.72,1082.22c12.63,0,22.87,10.24,22.87,22.87v15.24c0,12.63-10.24,22.87-22.87,22.87
		c-12.63,0-22.87-10.24-22.87-22.87v-15.24C858.85,1092.46,869.09,1082.22,881.72,1082.22z"/>
	<path class="st0" d="M779.94,1082.22c12.63,0,22.87,10.24,22.87,22.87v15.24c0,12.63-10.24,22.87-22.87,22.87
		c-12.63,0-22.87-10.24-22.87-22.87v-15.24C757.07,1092.46,767.31,1082.22,779.94,1082.22z"/>
	<path class="st0" d="M678.16,1082.22c12.63,0,22.87,10.24,22.87,22.87v15.24c0,12.63-10.24,22.87-22.87,22.87
		c-12.63,0-22.87-10.24-22.87-22.87v-15.24C655.29,1092.46,665.53,1082.22,678.16,1082.22z"/>
	<path class="st0" d="M576.38,1082.22c12.63,0,22.87,10.24,22.87,22.87v15.24c0,12.63-10.24,22.87-22.87,22.87
		s-22.87-10.24-22.87-22.87v-15.24C553.51,1092.46,563.75,1082.22,576.38,1082.22z"/>
	<path class="st0" d="M474.59,1082.22c12.63,0,22.87,10.24,22.87,22.87v15.24c0,12.63-10.24,22.87-22.87,22.87
		c-12.63,0-22.87-10.24-22.87-22.87v-15.24C451.73,1092.46,461.96,1082.22,474.59,1082.22z"/>
	<path class="st0" d="M372.81,1082.22c12.63,0,22.87,10.24,22.87,22.87v15.24c0,12.63-10.24,22.87-22.87,22.87
		c-12.63,0-22.87-10.24-22.87-22.87v-15.24C349.95,1092.46,360.18,1082.22,372.81,1082.22z"/>
	<path class="st0" d="M881.72,800.21c12.63,0,22.87,10.24,22.87,22.87v15.24c0,12.63-10.24,22.87-22.87,22.87
		c-12.63,0-22.87-10.24-22.87-22.87v-15.24C858.85,810.45,869.09,800.21,881.72,800.21z"/>
	<path class="st0" d="M972.1,1041.87c12.63,0,22.87,10.24,22.87,22.87v15.24c0,12.63-10.24,22.87-22.87,22.87
		c-12.63,0-22.87-10.24-22.87-22.87v-15.24C949.23,1052.1,959.47,1041.87,972.1,1041.87z"/>
	<path class="st0" d="M972.1,759.85c12.63,0,22.87,10.24,22.87,22.87v15.24c0,12.63-10.24,22.87-22.87,22.87
		c-12.63,0-22.87-10.24-22.87-22.87v-15.24C949.23,770.09,959.47,759.85,972.1,759.85z"/>
	<path class="st0" d="M779.94,800.21c12.63,0,22.87,10.24,22.87,22.87v15.24c0,12.63-10.24,22.87-22.87,22.87
		c-12.63,0-22.87-10.24-22.87-22.87v-15.24C757.07,810.45,767.31,800.21,779.94,800.21z"/>
	<path class="st0" d="M678.16,800.21c12.63,0,22.87,10.24,22.87,22.87v15.24c0,12.63-10.24,22.87-22.87,22.87
		c-12.63,0-22.87-10.24-22.87-22.87v-15.24C655.29,810.45,665.53,800.21,678.16,800.21z"/>
	<path class="st0" d="M576.38,800.21c12.63,0,22.87,10.24,22.87,22.87v15.24c0,12.63-10.24,22.87-22.87,22.87
		s-22.87-10.24-22.87-22.87v-15.24C553.51,810.45,563.75,800.21,576.38,800.21z"/>
	<path class="st0" d="M474.59,800.21c12.63,0,22.87,10.24,22.87,22.87v15.24c0,12.63-10.24,22.87-22.87,22.87
		c-12.63,0-22.87-10.24-22.87-22.87v-15.24C451.73,810.45,461.96,800.21,474.59,800.21z"/>
	<path class="st0" d="M372.81,800.21c12.63,0,22.87,10.24,22.87,22.87v15.24c0,12.63-10.24,22.87-22.87,22.87
		c-12.63,0-22.87-10.24-22.87-22.87v-15.24C349.95,810.45,360.18,800.21,372.81,800.21z"/>
	<path class="st0" d="M271.03,800.21c12.63,0,22.87,10.24,22.87,22.87v15.24c0,12.63-10.24,22.87-22.87,22.87
		c-12.63,0-22.87-10.24-22.87-22.87v-15.24C248.16,810.45,258.4,800.21,271.03,800.21z"/>
	<path class="st0" d="M169.25,800.21c12.63,0,22.87,10.24,22.87,22.87v15.24c0,12.63-10.24,22.87-22.87,22.87
		c-12.63,0-22.87-10.24-22.87-22.87v-15.24C146.38,810.45,156.62,800.21,169.25,800.21z"/>
</g>
<path class="st1" d="M335.04,92.75v424.79c-90.63,2.9-163.22,77.3-163.22,168.63V261.38C171.82,170.04,244.4,95.65,335.04,92.75
	L335.04,92.75z"/>
<g>
	<path class="st0" d="M339.98,194.51c-12.63,0-22.87-10.24-22.87-22.87V156.4c0-12.63,10.24-22.87,22.87-22.87
		s22.87,10.24,22.87,22.87v15.24C362.85,184.27,352.61,194.51,339.98,194.51z"/>
	<path class="st0" d="M441.76,194.51c-12.63,0-22.87-10.24-22.87-22.87V156.4c0-12.63,10.24-22.87,22.87-22.87
		s22.87,10.24,22.87,22.87v15.24C464.63,184.27,454.39,194.51,441.76,194.51L441.76,194.51z"/>
	<path class="st0" d="M543.54,194.51c-12.63,0-22.87-10.24-22.87-22.87V156.4c0-12.63,10.24-22.87,22.87-22.87
		s22.87,10.24,22.87,22.87v15.24C566.41,184.27,556.17,194.51,543.54,194.51z"/>
	<path class="st0" d="M645.32,194.51c-12.63,0-22.87-10.24-22.87-22.87V156.4c0-12.63,10.24-22.87,22.87-22.87
		c12.63,0,22.87,10.24,22.87,22.87v15.24C668.19,184.27,657.95,194.51,645.32,194.51z"/>
	<path class="st0" d="M747.11,194.51c-12.63,0-22.87-10.24-22.87-22.87V156.4c0-12.63,10.24-22.87,22.87-22.87
		c12.63,0,22.87,10.24,22.87,22.87v15.24C769.97,184.27,759.73,194.51,747.11,194.51z"/>
	<path class="st0" d="M339.98,476.52c-12.63,0-22.87-10.24-22.87-22.87v-15.24c0-12.63,10.24-22.87,22.87-22.87
		s22.87,10.24,22.87,22.87v15.24C362.85,466.29,352.61,476.52,339.98,476.52L339.98,476.52z"/>
	<path class="st0" d="M249.6,234.87c-12.63,0-22.87-10.24-22.87-22.87v-15.25c0-12.63,10.24-22.87,22.87-22.87
		c12.63,0,22.87,10.24,22.87,22.87V212C272.47,224.63,262.23,234.87,249.6,234.87z"/>
	<path class="st0" d="M249.6,516.88c-12.63,0-22.87-10.24-22.87-22.87v-15.24c0-12.63,10.24-22.87,22.87-22.87
		c12.63,0,22.87,10.24,22.87,22.87v15.24C272.47,506.64,262.23,516.88,249.6,516.88z"/>
	<path class="st0" d="M441.76,476.52c-12.63,0-22.87-10.24-22.87-22.87v-15.24c0-12.63,10.24-22.87,22.87-22.87
		s22.87,10.24,22.87,22.87v15.24C464.63,466.29,454.39,476.52,441.76,476.52L441.76,476.52z"/>
	<path class="st0" d="M543.54,476.52c-12.63,0-22.87-10.24-22.87-22.87v-15.24c0-12.63,10.24-22.87,22.87-22.87
		s22.87,10.24,22.87,22.87v15.24C566.41,466.29,556.17,476.52,543.54,476.52L543.54,476.52z"/>
	<path class="st0" d="M645.32,476.52c-12.63,0-22.87-10.24-22.87-22.87v-15.24c0-12.63,10.24-22.87,22.87-22.87
		c12.63,0,22.87,10.24,22.87,22.87v15.24C668.19,466.29,657.95,476.52,645.32,476.52L645.32,476.52z"/>
	<path class="st0" d="M747.11,476.52c-12.63,0-22.87-10.24-22.87-22.87v-15.24c0-12.63,10.24-22.87,22.87-22.87
		c12.63,0,22.87,10.24,22.87,22.87v15.24C769.97,466.29,759.73,476.52,747.11,476.52L747.11,476.52z"/>
	<path class="st0" d="M848.89,476.52c-12.63,0-22.87-10.24-22.87-22.87v-15.24c0-12.63,10.24-22.87,22.87-22.87
		c12.63,0,22.87,10.24,22.87,22.87v15.24C871.75,466.29,861.52,476.52,848.89,476.52L848.89,476.52z"/>
	<path class="st0" d="M950.67,476.52c-12.63,0-22.87-10.24-22.87-22.87v-15.24c0-12.63,10.24-22.87,22.87-22.87
		c12.63,0,22.87,10.24,22.87,22.87v15.24C973.54,466.29,963.3,476.52,950.67,476.52L950.67,476.52z"/>
	<path class="st0" d="M1052.45,476.52c-12.63,0-22.87-10.24-22.87-22.87v-15.24c0-12.63,10.24-22.87,22.87-22.87
		c12.63,0,22.87,10.24,22.87,22.87v15.24C1075.32,466.29,1065.08,476.52,1052.45,476.52L1052.45,476.52z"/>
</g>
<path class="st3" d="M827.91,575.47L626.5,459.18c-45.66-26.36-102.73,6.59-102.73,59.31v232.57c0,52.72,57.07,85.67,102.73,59.31
	l201.41-116.28C873.56,667.73,873.56,601.83,827.91,575.47L827.91,575.47z"/>
<path class="st4" d="M622.51,812.51c-44.92,22.28-98.74-10.26-98.74-61.45V518.49c0-51.19,53.82-83.73,98.74-61.45
	c-22.06,10.87-38.25,33.35-38.25,61.45v232.56C584.26,779.15,600.46,801.64,622.51,812.51L622.51,812.51z"/>
</svg>
